<?xml version="1.0" encoding="utf-8"?>
<!DOCTYPE svg PUBLIC "-//W3C//DTD SVG 1.1//EN" "http://www.w3.org/Graphics/SVG/1.1/DTD/svg11.dtd">
<svg version="1.1" id="beahance" xmlns="http://www.w3.org/2000/svg" xmlns:xlink="http://www.w3.org/1999/xlink" x="0px" y="0px"
	 width="50px" height="50px" viewBox="0 0 50 50" enable-background="new 0 0 50 50" xml:space="preserve">
<g>
	<path d="M24.991,0C11.188,0,0,11.188,0,24.991c0,13.803,11.188,24.991,24.991,24.991c13.803,0,24.991-11.188,24.991-24.991
		C49.98,11.188,38.794,0,24.991,0z M24.991,46.075c-11.646,0-21.085-9.439-21.085-21.084c0-11.646,9.439-21.085,21.085-21.085
		c11.646,0,21.084,9.439,21.084,21.085C46.075,36.636,36.637,46.075,24.991,46.075z"/>
	<path d="M23.676,18.807c0.461,0.645,0.693,1.42,0.693,2.324c0,0.929-0.235,1.68-0.698,2.245
		c-0.263,0.316-0.643,0.605-1.147,0.865c0.766,0.286,1.347,0.73,1.738,1.343c0.391,0.618,0.586,1.359,0.586,2.234
		c0,0.904-0.223,1.713-0.671,2.429c-0.283,0.478-0.638,0.875-1.065,1.204c-0.479,0.371-1.049,0.623-1.701,0.763
		c-0.654,0.134-1.363,0.203-2.127,0.203h-6.789V17.181h7.281C21.61,17.207,22.914,17.749,23.676,18.807z M15.501,19.831v3.355
		h3.66c0.654,0,1.183-0.125,1.594-0.375c0.404-0.254,0.611-0.7,0.611-1.34c0-0.711-0.271-1.175-0.809-1.406
		c-0.464-0.158-1.06-0.234-1.78-0.234H15.501z M15.501,25.714v4.06h3.654c0.653,0,1.162-0.094,1.525-0.271
		c0.662-0.333,0.992-0.967,0.992-1.901c0-0.797-0.321-1.338-0.961-1.635c-0.357-0.165-0.858-0.25-1.504-0.253H15.501z"/>
	<path d="M34.572,21.377c0.777,0.354,1.421,0.908,1.929,1.668c0.452,0.674,0.751,1.448,0.888,2.332
		c0.076,0.516,0.108,1.258,0.094,2.23h-8.11c0.045,1.135,0.437,1.926,1.169,2.383c0.441,0.279,0.979,0.421,1.602,0.421
		c0.664,0,1.203-0.172,1.615-0.519c0.229-0.186,0.428-0.438,0.604-0.772h2.971c-0.077,0.665-0.438,1.347-1.079,2.039
		c-0.997,1.09-2.396,1.642-4.19,1.642c-1.479,0-2.787-0.462-3.92-1.387c-1.134-0.926-1.697-2.428-1.697-4.512
		c0-1.949,0.51-3.449,1.535-4.491c1.021-1.041,2.347-1.563,3.979-1.563C32.925,20.848,33.799,21.03,34.572,21.377z M30.221,23.923
		c-0.414,0.432-0.67,1.011-0.775,1.748h5.016c-0.054-0.784-0.313-1.38-0.777-1.783c-0.461-0.404-1.037-0.607-1.725-0.607
		C31.212,23.281,30.63,23.497,30.221,23.923z"/>
	<rect x="28.113" y="18.743" width="7.811" height="1.563"/>
</g>
</svg>
