<?xml version="1.0" encoding="utf-8"?>
<!DOCTYPE svg PUBLIC "-//W3C//DTD SVG 1.1//EN" "http://www.w3.org/Graphics/SVG/1.1/DTD/svg11.dtd">
<svg version="1.1" id="deviantart" xmlns="http://www.w3.org/2000/svg" xmlns:xlink="http://www.w3.org/1999/xlink" x="0px" y="0px"
	 width="50px" height="50px" viewBox="0 0 50 50" enable-background="new 0 0 50 50" xml:space="preserve">
<g>
	<path d="M24.991,0C11.188,0,0,11.188,0,24.991c0,13.803,11.188,24.991,24.991,24.991c13.803,0,24.991-11.188,24.991-24.991
		C49.98,11.188,38.794,0,24.991,0z M24.991,46.075c-11.646,0-21.085-9.439-21.085-21.084c0-11.646,9.439-21.085,21.085-21.085
		c11.646,0,21.084,9.439,21.084,21.085C46.075,36.636,36.637,46.075,24.991,46.075z"/>
	<path d="M26.991,21.495c-1.167-0.068-2.515,0-4.075,0.267l3.6,6.487l14.299-3.925c-0.153-0.368-0.381-0.725-0.678-1.071
		c-1.479-1.713-4.688-3.242-8.185-3.931v-0.001c-3.429-0.803-7.142-0.769-10.945-0.195c-0.137,0.021-0.273,0.042-0.409,0.065
		l-1.264-2.341c-1.23,0.164-2.387,0.42-3.458,0.762l1.204,2.519c-1.967,0.762-3.581,1.847-4.745,3.153
		c-1.92,2.185-2.68,4.932-1.757,7.608c0.186,0.539,0.437,1.051,0.746,1.529l14.299-3.927l-3.971-7.352
		c0.137-0.027,0.274-0.053,0.417-0.079c6.421-1.146,9.934,0.623,11.857,2.507l-4.892,1.186L26.991,21.495z M15.412,28.057
		c-0.441-2.015-0.089-4.263,2.704-5.761l2.188,4.575L15.412,28.057z"/>

</g>
</svg>
