<?xml version="1.0" encoding="utf-8"?>
<!DOCTYPE svg PUBLIC "-//W3C//DTD SVG 1.1//EN" "http://www.w3.org/Graphics/SVG/1.1/DTD/svg11.dtd">
<svg version="1.1" id="facebook" xmlns="http://www.w3.org/2000/svg" xmlns:xlink="http://www.w3.org/1999/xlink" x="0px" y="0px"
	 width="50px" height="50px" viewBox="0 0 50 50" enable-background="new 0 0 50 50" xml:space="preserve">
<g>
	<path d="M24.991,0C11.188,0,0,11.188,0,24.991c0,13.803,11.188,24.991,24.991,24.991c13.803,0,24.991-11.188,24.991-24.991
		C49.98,11.188,38.794,0,24.991,0z M24.991,46.075c-11.646,0-21.085-9.439-21.085-21.084c0-11.646,9.439-21.085,21.085-21.085
		c11.646,0,21.084,9.439,21.084,21.085C46.075,36.636,36.637,46.075,24.991,46.075z"/>
	<path d="M31.915,11.076l-3.744-0.005c-4.206,0-6.921,2.787-6.921,7.101v3.274h-3.763c-0.326,0-0.589,0.265-0.589,0.591v4.744
		c0,0.322,0.263,0.587,0.589,0.587h3.763v11.975c0,0.326,0.263,0.587,0.588,0.587h4.91c0.324,0,0.588-0.265,0.588-0.587V27.368
		h4.398c0.328,0,0.588-0.265,0.588-0.587l0.004-4.744c0-0.158-0.064-0.306-0.174-0.418c-0.109-0.109-0.26-0.173-0.416-0.173h-4.4
		v-2.775c0-1.333,0.318-2.011,2.055-2.011l2.523-0.002c0.324,0,0.588-0.263,0.588-0.588v-4.406
		C32.501,11.34,32.236,11.077,31.915,11.076z"/>
</g>
</svg>
