<?xml version="1.0" encoding="utf-8"?>
<!DOCTYPE svg PUBLIC "-//W3C//DTD SVG 1.1//EN" "http://www.w3.org/Graphics/SVG/1.1/DTD/svg11.dtd">
<svg version="1.1" id="github" xmlns="http://www.w3.org/2000/svg" xmlns:xlink="http://www.w3.org/1999/xlink" x="0px" y="0px"
	 width="50px" height="50px" viewBox="0 0 50 50" enable-background="new 0 0 50 50" xml:space="preserve">
<g>
	<path d="M24.991,0C11.188,0,0,11.188,0,24.991c0,13.803,11.188,24.991,24.991,24.991c13.803,0,24.991-11.188,24.991-24.991
		C49.981,11.188,38.794,0,24.991,0z M24.991,46.075c-11.646,0-21.085-9.439-21.085-21.084c0-11.646,9.439-21.085,21.085-21.085
		c11.645,0,21.084,9.439,21.084,21.085C46.075,36.636,36.636,46.075,24.991,46.075z"/>
	<path d="M30.312,46.5v-6.535c0-1.711-0.587-2.969-1.76-3.773c0.734-0.07,1.409-0.17,2.024-0.297s1.265-0.311,1.95-0.551
		c0.685-0.24,1.3-0.527,1.844-0.859c0.545-0.332,1.067-0.762,1.568-1.293c0.502-0.529,0.923-1.131,1.262-1.803
		c0.34-0.67,0.607-1.475,0.806-2.416c0.197-0.939,0.297-1.975,0.297-3.105c0-2.188-0.714-4.054-2.141-5.595
		c0.65-1.695,0.579-3.54-0.212-5.532l-0.53-0.063c-0.368-0.043-1.028,0.113-1.982,0.466c-0.954,0.353-2.024,0.933-3.211,1.738
		c-1.682-0.466-3.427-0.699-5.236-0.699c-1.823,0-3.561,0.233-5.214,0.699c-0.749-0.509-1.459-0.929-2.13-1.261
		c-0.671-0.332-1.208-0.558-1.611-0.678c-0.403-0.12-0.777-0.194-1.124-0.223c-0.346-0.028-0.569-0.035-0.668-0.021
		c-0.099,0.014-0.169,0.028-0.212,0.042c-0.791,2.007-0.862,3.851-0.211,5.532c-1.427,1.541-2.141,3.406-2.141,5.595
		c0,1.13,0.099,2.166,0.297,3.105c0.197,0.941,0.466,1.746,0.805,2.416c0.339,0.672,0.759,1.273,1.261,1.803
		c0.501,0.531,1.024,0.961,1.568,1.293s1.159,0.619,1.844,0.859c0.686,0.24,1.335,0.424,1.95,0.551s1.29,0.227,2.024,0.297
		c-1.159,0.791-1.738,2.049-1.738,3.773v5.973"/>
</g>
</svg>
