<?xml version="1.0" encoding="utf-8"?>
<!DOCTYPE svg PUBLIC "-//W3C//DTD SVG 1.1//EN" "http://www.w3.org/Graphics/SVG/1.1/DTD/svg11.dtd">
<svg version="1.1" id="google" xmlns="http://www.w3.org/2000/svg" xmlns:xlink="http://www.w3.org/1999/xlink" x="0px" y="0px"
	 width="50px" height="50px" viewBox="0 0 50 50" enable-background="new 0 0 50 50" xml:space="preserve">
<g>
	<path d="M24.991,0C11.188,0,0,11.188,0,24.991c0,13.803,11.188,24.991,24.991,24.991c13.803,0,24.991-11.188,24.991-24.991
		C49.98,11.188,38.794,0,24.991,0z M24.991,46.075c-11.646,0-21.085-9.439-21.085-21.084c0-11.646,9.439-21.085,21.085-21.085
		c11.646,0,21.084,9.439,21.084,21.085C46.075,36.636,36.637,46.075,24.991,46.075z"/>
	<path d="M27.111,14.147h-7.446c-3.337,0-6.478,2.529-6.478,5.459c0,2.994,2.275,5.411,5.672,5.411l0.69-0.021
		c-0.22,0.422-0.379,0.896-0.379,1.391c0,0.832,0.448,1.508,1.014,2.057l-1.291,0.016c-4.135-0.002-7.317,2.634-7.317,5.361
		c0,2.691,3.49,4.373,7.624,4.373c4.713,0,7.317-2.676,7.317-5.364c0-2.156-0.637-3.448-2.604-4.841
		c-0.672-0.477-1.959-1.635-1.959-2.315c0-0.799,0.228-1.191,1.43-2.131c1.231-0.962,2.103-2.316,2.103-3.889
		c0-1.873-0.835-3.699-2.402-4.301h2.36L27.111,14.147z M24.512,32.365c0.059,0.249,0.091,0.504,0.091,0.769
		c0,2.177-1.4,3.871-5.418,3.871c-2.858,0-4.921-1.81-4.921-3.981c0-2.129,2.559-3.899,5.418-3.871
		c0.667,0.008,1.29,0.113,1.854,0.297C23.086,30.525,24.2,31.135,24.512,32.365z M19.936,24.258
		c-1.919-0.057-3.742-2.147-4.073-4.666c-0.331-2.521,0.955-4.449,2.873-4.392c1.917,0.057,3.743,2.08,4.073,4.598
		C23.142,22.319,21.853,24.315,19.936,24.258z"/>
	<polygon points="34.699,19.425 34.699,14.147 32.921,14.147 32.921,19.425 27.584,19.425 27.584,21.204 
		32.921,21.204 32.921,26.6 34.699,26.6 34.699,21.204 40.035,21.204 40.035,19.425 		"/>
</g>
</svg>
