<?xml version="1.0" encoding="utf-8"?>
<!DOCTYPE svg PUBLIC "-//W3C//DTD SVG 1.1//EN" "http://www.w3.org/Graphics/SVG/1.1/DTD/svg11.dtd">
<svg version="1.1" id="instagram" xmlns="http://www.w3.org/2000/svg" xmlns:xlink="http://www.w3.org/1999/xlink" x="0px" y="0px"
	 width="50px" height="50px" viewBox="0 0 50 50" enable-background="new 0 0 50 50" xml:space="preserve">
<g>
	<path d="M24.991,0C11.188,0,0,11.188,0,24.991c0,13.803,11.188,24.991,24.991,24.991c13.803,0,24.991-11.188,24.991-24.991
		C49.98,11.188,38.794,0,24.991,0z M24.991,46.075c-11.646,0-21.085-9.439-21.085-21.084c0-11.646,9.439-21.085,21.085-21.085
		c11.646,0,21.084,9.439,21.084,21.085C46.075,36.636,36.637,46.075,24.991,46.075z"/>
	<path d="M33.859,12.548H15.236c-1.734,0-3.14,1.406-3.14,3.14v18.625c0,1.733,1.406,3.14,3.14,3.14h18.624
		c1.732,0,3.141-1.405,3.141-3.14V15.688C37,13.955,35.594,12.548,33.859,12.548z M24.548,21.351c2.013,0,3.649,1.637,3.649,3.649
		c0,2.014-1.637,3.648-3.649,3.648c-2.012,0-3.648-1.637-3.648-3.648C20.899,22.988,22.536,21.351,24.548,21.351z M34.104,32.982
		c0,0.869-0.807,1.574-1.674,1.574H16.728c-0.868,0-1.735-0.705-1.735-1.574v-7.851c0-0.867,0.868-1.58,1.735-1.58h0.875
		c0.165,0,0.322,0.071,0.431,0.195c0.109,0.124,0.161,0.29,0.139,0.453c-0.034,0.263-0.053,0.529-0.053,0.8
		c0,3.545,2.884,6.43,6.429,6.43s6.428-2.885,6.428-6.43c0-0.271-0.018-0.537-0.052-0.8c-0.022-0.163,0.028-0.329,0.138-0.453
		c0.109-0.125,0.266-0.195,0.433-0.195h0.938c0.866,0,1.672,0.713,1.672,1.58v7.851H34.104L34.104,32.982z M34.104,18.506
		L34.104,18.506c0,0.868-0.703,1.571-1.569,1.571h-1.492c-0.868,0-1.571-0.703-1.571-1.571v-1.492c0-0.867,0.703-1.57,1.571-1.57
		h1.492c0.866,0,1.569,0.703,1.569,1.57V18.506z"/>
</g>
</svg>
