<?xml version="1.0" encoding="utf-8"?>
<!DOCTYPE svg PUBLIC "-//W3C//DTD SVG 1.1//EN" "http://www.w3.org/Graphics/SVG/1.1/DTD/svg11.dtd">
<svg version="1.1" id="linkedin" xmlns="http://www.w3.org/2000/svg" xmlns:xlink="http://www.w3.org/1999/xlink" x="0px" y="0px"
	 width="50px" height="50px" viewBox="0 0 50 50" enable-background="new 0 0 50 50" xml:space="preserve">
<g>
	<path d="M24.991,0C11.188,0,0,11.188,0,24.991c0,13.803,11.188,24.991,24.991,24.991c13.803,0,24.991-11.188,24.991-24.991
		C49.98,11.188,38.794,0,24.991,0z M24.991,46.075c-11.646,0-21.085-9.439-21.085-21.084c0-11.646,9.439-21.085,21.085-21.085
		c11.646,0,21.084,9.439,21.084,21.085C46.075,36.636,36.637,46.075,24.991,46.075z"/>
	<path d="M14.112,35.889h4.086V19.543h-4.086V35.889z M30.455,19.543c-3.498,0.058-5.219,2.608-5.447,2.723v-2.723h-4.086v16.344
		h4.086v-9.533c0-0.351,0.861-3.15,4.085-2.726c1.732,0.113,2.666,2.403,2.726,2.726v9.533l4.07,0.018V24.591
		C35.744,22.957,34.927,19.602,30.455,19.543z M16.155,14.095c-1.128,0-2.043,0.914-2.043,2.043c0,1.129,0.915,2.042,2.043,2.042
		c1.127,0,2.043-0.914,2.043-2.042C18.198,15.009,17.282,14.095,16.155,14.095z"/>
</g>
</svg>
