<?xml version="1.0" encoding="utf-8"?>
<!DOCTYPE svg PUBLIC "-//W3C//DTD SVG 1.1//EN" "http://www.w3.org/Graphics/SVG/1.1/DTD/svg11.dtd">
<svg version="1.1" id="printerest" xmlns="http://www.w3.org/2000/svg" xmlns:xlink="http://www.w3.org/1999/xlink" x="0px" y="0px"
	 width="50px" height="50px" viewBox="0 0 50 50" enable-background="new 0 0 50 50" xml:space="preserve">
<g>
	<path d="M24.991,0C11.188,0,0,11.188,0,24.991c0,13.803,11.188,24.991,24.991,24.991c13.803,0,24.991-11.188,24.991-24.991
		C49.98,11.188,38.794,0,24.991,0z M24.991,46.075c-11.646,0-21.085-9.439-21.085-21.084c0-11.646,9.439-21.085,21.085-21.085
		c11.646,0,21.084,9.439,21.084,21.085C46.075,36.636,36.637,46.075,24.991,46.075z"/>

	<path d="M35.902,18.984c-0.737-5.349-6.068-8.072-11.756-7.435c-4.496,0.504-8.978,4.139-9.164,9.337
		c-0.113,3.173,0.786,5.554,3.806,6.224c1.307-2.314-0.421-2.82-0.692-4.497c-1.108-6.851,7.902-11.529,12.623-6.743
		c3.27,3.316,1.114,13.509-4.148,12.448c-5.043-1.012,2.47-9.125-1.555-10.717c-3.271-1.295-5.008,3.958-3.458,6.569
		c-0.91,4.491-2.869,8.721-2.075,14.35c2.571-1.865,3.439-5.437,4.149-9.164c1.292,0.787,1.984,1.602,3.633,1.729
		C33.339,31.557,36.736,25.02,35.902,18.984z"/>
</g>
</svg>
