<?xml version="1.0" encoding="utf-8"?>
<!DOCTYPE svg PUBLIC "-//W3C//DTD SVG 1.1//EN" "http://www.w3.org/Graphics/SVG/1.1/DTD/svg11.dtd">
<svg version="1.1" id="Layer_1" xmlns="http://www.w3.org/2000/svg" xmlns:xlink="http://www.w3.org/1999/xlink" x="0px" y="0px"
	 width="50px" height="50px" viewBox="0 0 50 50" enable-background="new 0 0 50 50" xml:space="preserve">
<g>
	<path d="M24.991,0C11.188,0,0,11.188,0,24.991c0,13.803,11.188,24.991,24.991,24.991c13.803,0,24.991-11.188,24.991-24.991
		C49.98,11.188,38.794,0,24.991,0z M24.991,46.075c-11.646,0-21.085-9.439-21.085-21.084c0-11.646,9.439-21.085,21.085-21.085
		c11.646,0,21.084,9.439,21.084,21.085C46.075,36.636,36.637,46.075,24.991,46.075z"/>
	<path d="M34.033,18.935c1.135-0.696,1.887-1.647,2.253-2.856c-1.103,0.586-2.202,0.987-3.3,1.209
		c-0.987-1.062-2.237-1.601-3.735-1.601c-1.465,0-2.702,0.514-3.711,1.513c-1.004,1.007-1.511,2.23-1.511,3.658
		c0,0.434,0.055,0.821,0.165,1.149c-4.319-0.147-7.894-1.938-10.711-5.387c-0.477,0.844-0.716,1.703-0.716,2.592
		c0,1.826,0.771,3.274,2.31,4.337c-0.877-0.074-1.651-0.296-2.31-0.66c0,1.304,0.383,2.394,1.151,3.353
		c0.771,0.949,1.761,1.554,2.969,1.813c-0.438,0.112-0.9,0.168-1.375,0.168c-0.438,0-0.748-0.037-0.932-0.117
		c0.323,1.063,0.932,1.924,1.812,2.584c0.878,0.664,1.887,1.014,3.022,1.043c-1.87,1.469-4.009,2.193-6.428,2.193
		c-0.592,0-1.012-0.009-1.267-0.054c2.383,1.549,5.035,2.313,7.97,2.313c3.003,0,5.658-0.76,7.967-2.281
		c2.311-1.514,4.014-3.381,5.109-5.58c1.101-2.195,1.645-4.481,1.645-6.869V20.8c1.064-0.801,1.926-1.702,2.585-2.697
		C36.041,18.514,35.055,18.793,34.033,18.935z"/>
</g>
</svg>
