<?xml version="1.0" encoding="utf-8"?>
<!DOCTYPE svg PUBLIC "-//W3C//DTD SVG 1.1//EN" "http://www.w3.org/Graphics/SVG/1.1/DTD/svg11.dtd">
<svg version="1.1" id="Layer_1" xmlns="http://www.w3.org/2000/svg" xmlns:xlink="http://www.w3.org/1999/xlink" x="0px" y="0px"
	 width="50px" height="50px" viewBox="0 0 50 50" enable-background="new 0 0 50 50" xml:space="preserve">
<g>
	<path d="M24.991,0C11.188,0,0,11.188,0,24.991c0,13.803,11.188,24.991,24.991,24.991c13.803,0,24.991-11.188,24.991-24.991
		C49.98,11.188,38.794,0,24.991,0z M24.991,46.075c-11.646,0-21.085-9.439-21.085-21.084c0-11.646,9.439-21.085,21.085-21.085
		c11.646,0,21.084,9.439,21.084,21.085C46.075,36.636,36.637,46.075,24.991,46.075z"/>
	<path d="M36.781,20.464c-0.133-1.596-1.084-3.608-3.04-3.68c-5.46-0.367-11.928-0.467-17.487,0
		c-1.725,0.193-2.907,2.294-3.036,3.89c-0.273,3.352-0.273,5.26,0,8.611c0.13,1.596,1.283,3.709,3.039,3.93
		c5.625,0.367,12.062,0.42,17.487,0c1.701-0.295,2.908-2.334,3.039-3.93C37.055,25.932,37.055,23.816,36.781,20.464z
		 M22.002,29.23v-8.592l7.492,4.297L22.002,29.23z"/>
</g>
</svg>
